<mxfile host="app.diagrams.net" modified="2022-05-16T05:30:02.464Z" agent="5.0 (Windows NT 10.0; Win64; x64) AppleWebKit/537.36 (KHTML, like Gecko) Chrome/101.0.4951.64 Safari/537.36" etag="EfYJP-d5tW4cmqg8jNxL" version="18.0.3" type="github">
  <diagram id="WLRPb3Po5uMKOTe53thk" name="Page-1">
    <mxGraphModel dx="1084" dy="544" grid="1" gridSize="13" guides="1" tooltips="1" connect="1" arrows="1" fold="1" page="1" pageScale="1" pageWidth="827" pageHeight="1169" math="0" shadow="0">
      <root>
        <mxCell id="0" />
        <mxCell id="1" parent="0" />
        <mxCell id="F1N8uxK0OkOdDNArj4mm-25" style="edgeStyle=orthogonalEdgeStyle;rounded=0;orthogonalLoop=1;jettySize=auto;html=1;exitX=0.5;exitY=0;exitDx=0;exitDy=0;entryX=0.5;entryY=1;entryDx=0;entryDy=0;fontFamily=Times New Roman;fontSize=14;" edge="1" parent="1" source="F1N8uxK0OkOdDNArj4mm-6" target="F1N8uxK0OkOdDNArj4mm-21">
          <mxGeometry relative="1" as="geometry" />
        </mxCell>
        <mxCell id="F1N8uxK0OkOdDNArj4mm-31" value="0.5x" style="edgeLabel;html=1;align=center;verticalAlign=middle;resizable=0;points=[];fontSize=14;fontFamily=Times New Roman;" vertex="1" connectable="0" parent="F1N8uxK0OkOdDNArj4mm-25">
          <mxGeometry x="0.0937" y="1" relative="1" as="geometry">
            <mxPoint as="offset" />
          </mxGeometry>
        </mxCell>
        <mxCell id="F1N8uxK0OkOdDNArj4mm-6" value="&lt;span style=&quot;font-size: 14px;&quot;&gt;Res_C4&lt;/span&gt;&lt;br style=&quot;font-size: 14px;&quot;&gt;&lt;span style=&quot;font-size: 14px;&quot;&gt;Stride=16&lt;/span&gt;" style="rounded=0;whiteSpace=wrap;html=1;fillColor=#ffe6cc;strokeColor=#d79b00;fontStyle=1;fontFamily=Times New Roman;fontSize=14;" vertex="1" parent="1">
          <mxGeometry x="93.11999999999999" y="182" width="59.25" height="52" as="geometry" />
        </mxCell>
        <mxCell id="F1N8uxK0OkOdDNArj4mm-16" style="edgeStyle=orthogonalEdgeStyle;rounded=0;orthogonalLoop=1;jettySize=auto;html=1;exitX=0.5;exitY=0;exitDx=0;exitDy=0;entryX=0.5;entryY=1;entryDx=0;entryDy=0;fontStyle=1;fontFamily=Times New Roman;fontSize=14;" edge="1" parent="1" source="F1N8uxK0OkOdDNArj4mm-7" target="F1N8uxK0OkOdDNArj4mm-6">
          <mxGeometry relative="1" as="geometry">
            <mxPoint x="120.063829787234" y="220.00000000000006" as="targetPoint" />
          </mxGeometry>
        </mxCell>
        <mxCell id="F1N8uxK0OkOdDNArj4mm-30" value="0.5x" style="edgeLabel;html=1;align=center;verticalAlign=middle;resizable=0;points=[];fontSize=14;fontFamily=Times New Roman;" vertex="1" connectable="0" parent="F1N8uxK0OkOdDNArj4mm-16">
          <mxGeometry x="-0.336" y="1" relative="1" as="geometry">
            <mxPoint as="offset" />
          </mxGeometry>
        </mxCell>
        <mxCell id="F1N8uxK0OkOdDNArj4mm-7" value="&lt;span style=&quot;font-size: 14px;&quot;&gt;Res_C4&lt;/span&gt;&lt;br style=&quot;font-size: 14px;&quot;&gt;&lt;span style=&quot;font-size: 14px;&quot;&gt;(Stride=8)&lt;/span&gt;" style="rounded=0;whiteSpace=wrap;html=1;fillColor=#ffe6cc;strokeColor=#d79b00;fontStyle=1;fontFamily=Times New Roman;fontSize=14;" vertex="1" parent="1">
          <mxGeometry x="87" y="260" width="71.5" height="52" as="geometry" />
        </mxCell>
        <mxCell id="F1N8uxK0OkOdDNArj4mm-15" style="edgeStyle=orthogonalEdgeStyle;rounded=0;orthogonalLoop=1;jettySize=auto;html=1;exitX=0.5;exitY=0;exitDx=0;exitDy=0;entryX=0.5;entryY=1;entryDx=0;entryDy=0;fontStyle=1;fontFamily=Times New Roman;fontSize=14;" edge="1" parent="1" source="F1N8uxK0OkOdDNArj4mm-8" target="F1N8uxK0OkOdDNArj4mm-7">
          <mxGeometry relative="1" as="geometry" />
        </mxCell>
        <mxCell id="F1N8uxK0OkOdDNArj4mm-29" value="0.5x" style="edgeLabel;html=1;align=center;verticalAlign=middle;resizable=0;points=[];fontSize=14;fontFamily=Times New Roman;" vertex="1" connectable="0" parent="F1N8uxK0OkOdDNArj4mm-15">
          <mxGeometry x="0.0719" y="-1" relative="1" as="geometry">
            <mxPoint as="offset" />
          </mxGeometry>
        </mxCell>
        <mxCell id="F1N8uxK0OkOdDNArj4mm-8" value="&lt;span style=&quot;font-size: 14px;&quot;&gt;Res_C3&lt;/span&gt;&lt;br style=&quot;font-size: 14px;&quot;&gt;&lt;span style=&quot;font-size: 14px;&quot;&gt;(Stride=4)&lt;/span&gt;" style="rounded=0;whiteSpace=wrap;html=1;fillColor=#ffe6cc;strokeColor=#d79b00;fontStyle=1;fontFamily=Times New Roman;fontSize=14;" vertex="1" parent="1">
          <mxGeometry x="80.5" y="338" width="84.5" height="65" as="geometry" />
        </mxCell>
        <mxCell id="F1N8uxK0OkOdDNArj4mm-14" style="edgeStyle=orthogonalEdgeStyle;rounded=0;orthogonalLoop=1;jettySize=auto;html=1;exitX=0.5;exitY=0;exitDx=0;exitDy=0;entryX=0.5;entryY=1;entryDx=0;entryDy=0;fontStyle=1;fontFamily=Times New Roman;fontSize=14;" edge="1" parent="1" source="F1N8uxK0OkOdDNArj4mm-9" target="F1N8uxK0OkOdDNArj4mm-8">
          <mxGeometry relative="1" as="geometry">
            <Array as="points">
              <mxPoint x="123" y="429" />
              <mxPoint x="123" y="429" />
            </Array>
          </mxGeometry>
        </mxCell>
        <mxCell id="F1N8uxK0OkOdDNArj4mm-28" value="0.5x" style="edgeLabel;html=1;align=center;verticalAlign=middle;resizable=0;points=[];fontSize=14;fontFamily=Times New Roman;" vertex="1" connectable="0" parent="F1N8uxK0OkOdDNArj4mm-14">
          <mxGeometry x="0.1182" relative="1" as="geometry">
            <mxPoint as="offset" />
          </mxGeometry>
        </mxCell>
        <mxCell id="F1N8uxK0OkOdDNArj4mm-9" value="&lt;span style=&quot;font-size: 14px;&quot;&gt;Res_C2&lt;/span&gt;&lt;br style=&quot;font-size: 14px;&quot;&gt;&lt;span style=&quot;font-size: 14px;&quot;&gt;(Stride=4)&lt;/span&gt;" style="rounded=0;whiteSpace=wrap;html=1;fillColor=#ffe6cc;strokeColor=#d79b00;fontStyle=1;fontFamily=Times New Roman;fontSize=14;" vertex="1" parent="1">
          <mxGeometry x="63.510000000000005" y="429" width="110.5" height="65" as="geometry" />
        </mxCell>
        <mxCell id="F1N8uxK0OkOdDNArj4mm-23" style="edgeStyle=orthogonalEdgeStyle;rounded=0;orthogonalLoop=1;jettySize=auto;html=1;exitX=0.5;exitY=0;exitDx=0;exitDy=0;entryX=0.5;entryY=1;entryDx=0;entryDy=0;fontFamily=Times New Roman;fontSize=14;" edge="1" parent="1" source="F1N8uxK0OkOdDNArj4mm-10" target="F1N8uxK0OkOdDNArj4mm-9">
          <mxGeometry relative="1" as="geometry" />
        </mxCell>
        <mxCell id="F1N8uxK0OkOdDNArj4mm-27" value="0.5x" style="edgeLabel;html=1;align=center;verticalAlign=middle;resizable=0;points=[];fontSize=14;fontFamily=Times New Roman;" vertex="1" connectable="0" parent="F1N8uxK0OkOdDNArj4mm-23">
          <mxGeometry x="-0.1412" y="-1" relative="1" as="geometry">
            <mxPoint as="offset" />
          </mxGeometry>
        </mxCell>
        <mxCell id="F1N8uxK0OkOdDNArj4mm-10" value="Conv1&lt;br style=&quot;font-size: 14px;&quot;&gt;(Stride=2)" style="rounded=0;whiteSpace=wrap;html=1;fillColor=#ffe6cc;strokeColor=#d79b00;fontStyle=1;fontFamily=Times New Roman;fontSize=14;" vertex="1" parent="1">
          <mxGeometry x="52" y="520" width="130.01" height="78" as="geometry" />
        </mxCell>
        <mxCell id="F1N8uxK0OkOdDNArj4mm-12" style="edgeStyle=orthogonalEdgeStyle;rounded=0;orthogonalLoop=1;jettySize=auto;html=1;exitX=0.5;exitY=0;exitDx=0;exitDy=0;exitPerimeter=0;entryX=0.5;entryY=1;entryDx=0;entryDy=0;fontStyle=1;fontFamily=Times New Roman;fontSize=14;" edge="1" parent="1" source="F1N8uxK0OkOdDNArj4mm-11" target="F1N8uxK0OkOdDNArj4mm-10">
          <mxGeometry relative="1" as="geometry" />
        </mxCell>
        <mxCell id="F1N8uxK0OkOdDNArj4mm-26" value="0.5x" style="edgeLabel;html=1;align=center;verticalAlign=middle;resizable=0;points=[];fontSize=14;fontFamily=Times New Roman;" vertex="1" connectable="0" parent="F1N8uxK0OkOdDNArj4mm-12">
          <mxGeometry x="-0.0408" relative="1" as="geometry">
            <mxPoint as="offset" />
          </mxGeometry>
        </mxCell>
        <mxCell id="F1N8uxK0OkOdDNArj4mm-11" value="Image" style="strokeWidth=2;html=1;shape=mxgraph.flowchart.start_1;whiteSpace=wrap;fillColor=#dae8fc;strokeColor=#6c8ebf;fontStyle=1;fontFamily=Times New Roman;fontSize=14;" vertex="1" parent="1">
          <mxGeometry x="68.76" y="637" width="100" height="60" as="geometry" />
        </mxCell>
        <mxCell id="F1N8uxK0OkOdDNArj4mm-21" value="&lt;span style=&quot;font-size: 14px;&quot;&gt;Res_C4&lt;/span&gt;&lt;br style=&quot;font-size: 14px;&quot;&gt;&lt;span style=&quot;font-size: 14px;&quot;&gt;Stride=32&lt;/span&gt;" style="rounded=0;whiteSpace=wrap;html=1;fillColor=#ffe6cc;strokeColor=#d79b00;fontStyle=1;fontFamily=Times New Roman;fontSize=14;" vertex="1" parent="1">
          <mxGeometry x="93.12" y="104" width="57.75" height="52" as="geometry" />
        </mxCell>
      </root>
    </mxGraphModel>
  </diagram>
</mxfile>
